<svg id="visual" viewBox="0 0 900 100" width="900" height="100" xmlns="http://www.w3.org/2000/svg" xmlns:xlink="http://www.w3.org/1999/xlink" version="1.1"><rect x="0" y="0" width="900" height="100" fill="#222"></rect><path d="M0 45L33 51L67 53L100 61L133 47L167 55L200 42L233 44L267 47L300 43L333 41L367 59L400 48L433 42L467 39L500 47L533 48L567 61L600 51L633 62L667 53L700 46L733 46L767 35L800 60L833 57L867 53L900 57L900 101L867 101L833 101L800 101L767 101L733 101L700 101L667 101L633 101L600 101L567 101L533 101L500 101L467 101L433 101L400 101L367 101L333 101L300 101L267 101L233 101L200 101L167 101L133 101L100 101L67 101L33 101L0 101Z" fill="#00F" stroke-linecap="square" stroke-linejoin="bevel"></path></svg>