<svg id="visual" viewBox="0 0 900 100" width="900" height="100" xmlns="http://www.w3.org/2000/svg" xmlns:xlink="http://www.w3.org/1999/xlink" version="1.1"><rect x="0" y="0" width="900" height="100" fill="#222"></rect><path d="M0 29L6 29.5C12 30 24 31 36 32.5C48 34 60 36 72 35.3C84 34.7 96 31.3 108 28.3C120 25.3 132 22.7 144 24.2C156 25.7 168 31.3 180 33.8C192 36.3 204 35.7 216 35.8C228 36 240 37 252 35.3C264 33.7 276 29.3 288 28.5C300 27.7 312 30.3 324 29.5C336 28.7 348 24.3 360 22.8C372 21.3 384 22.7 396 25.5C408 28.3 420 32.7 432 33.8C444 35 456 33 468 33.2C480 33.3 492 35.7 504 36.8C516 38 528 38 540 38C552 38 564 38 576 35.5C588 33 600 28 612 26.7C624 25.3 636 27.7 648 28.3C660 29 672 28 684 27.2C696 26.3 708 25.7 720 24.8C732 24 744 23 756 24.3C768 25.7 780 29.3 792 32C804 34.7 816 36.3 828 34.2C840 32 852 26 864 24C876 22 888 24 894 25L900 26L900 0L894 0C888 0 876 0 864 0C852 0 840 0 828 0C816 0 804 0 792 0C780 0 768 0 756 0C744 0 732 0 720 0C708 0 696 0 684 0C672 0 660 0 648 0C636 0 624 0 612 0C600 0 588 0 576 0C564 0 552 0 540 0C528 0 516 0 504 0C492 0 480 0 468 0C456 0 444 0 432 0C420 0 408 0 396 0C384 0 372 0 360 0C348 0 336 0 324 0C312 0 300 0 288 0C276 0 264 0 252 0C240 0 228 0 216 0C204 0 192 0 180 0C168 0 156 0 144 0C132 0 120 0 108 0C96 0 84 0 72 0C60 0 48 0 36 0C24 0 12 0 6 0L0 0Z" fill="#A52A2A" stroke-linecap="round" stroke-linejoin="miter"></path></svg>