<svg id="visual" viewBox="0 0 900 100" width="900" height="100" xmlns="http://www.w3.org/2000/svg" xmlns:xlink="http://www.w3.org/1999/xlink" version="1.1"><rect x="0" y="0" width="900" height="100" fill="#222"></rect><path d="M0 72L36 62L72 70L108 42L144 61L180 20L216 66L252 83L288 53L324 49L360 56L396 42L432 39L468 41L504 81L540 14L576 35L612 44L648 37L684 78L720 77L756 28L792 66L828 26L864 28L900 43L900 0L864 0L828 0L792 0L756 0L720 0L684 0L648 0L612 0L576 0L540 0L504 0L468 0L432 0L396 0L360 0L324 0L288 0L252 0L216 0L180 0L144 0L108 0L72 0L36 0L0 0Z" fill="#008000" stroke-linecap="square" stroke-linejoin="bevel"></path></svg>