<svg id="visual" viewBox="0 0 900 100" width="900" height="100" xmlns="http://www.w3.org/2000/svg" xmlns:xlink="http://www.w3.org/1999/xlink" version="1.1"><rect x="0" y="0" width="900" height="100" fill="#008000"></rect><path d="M0 21L33 69L67 57L100 59L133 49L167 56L200 36L233 76L267 27L300 22L333 37L367 74L400 30L433 42L467 42L500 70L533 44L567 37L600 65L633 59L667 48L700 72L733 29L767 63L800 51L833 55L867 50L900 32L900 0L867 0L833 0L800 0L767 0L733 0L700 0L667 0L633 0L600 0L567 0L533 0L500 0L467 0L433 0L400 0L367 0L333 0L300 0L267 0L233 0L200 0L167 0L133 0L100 0L67 0L33 0L0 0Z" fill="#222" stroke-linecap="square" stroke-linejoin="bevel"></path></svg>