<svg id="visual" viewBox="0 0 900 100" width="900" height="100" xmlns="http://www.w3.org/2000/svg" xmlns:xlink="http://www.w3.org/1999/xlink" version="1.1"><rect x="0" y="0" width="900" height="100" fill="#222"></rect><path d="M0 36L9.3 32.5C18.7 29 37.3 22 56.2 21.5C75 21 94 27 112.8 28.7C131.7 30.3 150.3 27.7 169 28.2C187.7 28.7 206.3 32.3 225 34.5C243.7 36.7 262.3 37.3 281.2 36.7C300 36 319 34 337.8 30C356.7 26 375.3 20 394 20C412.7 20 431.3 26 450 30.2C468.7 34.3 487.3 36.7 506.2 35.3C525 34 544 29 562.8 24.3C581.7 19.7 600.3 15.3 619 16.7C637.7 18 656.3 25 675 25.2C693.7 25.3 712.3 18.7 731.2 18.8C750 19 769 26 787.8 30C806.7 34 825.3 35 844 35.5C862.7 36 881.3 36 890.7 36L900 36L900 0L890.7 0C881.3 0 862.7 0 844 0C825.3 0 806.7 0 787.8 0C769 0 750 0 731.2 0C712.3 0 693.7 0 675 0C656.3 0 637.7 0 619 0C600.3 0 581.7 0 562.8 0C544 0 525 0 506.2 0C487.3 0 468.7 0 450 0C431.3 0 412.7 0 394 0C375.3 0 356.7 0 337.8 0C319 0 300 0 281.2 0C262.3 0 243.7 0 225 0C206.3 0 187.7 0 169 0C150.3 0 131.7 0 112.8 0C94 0 75 0 56.2 0C37.3 0 18.7 0 9.3 0L0 0Z" fill="#ffa500" stroke-linecap="round" stroke-linejoin="miter"></path></svg>