<svg id="visual" viewBox="0 0 900 100" width="900" height="100" xmlns="http://www.w3.org/2000/svg" xmlns:xlink="http://www.w3.org/1999/xlink" version="1.1"><rect x="0" y="0" width="900" height="100" fill="#222"></rect><path d="M0 64L4.8 61.8C9.7 59.7 19.3 55.3 29 54.8C38.7 54.3 48.3 57.7 58 63C67.7 68.3 77.3 75.7 87 81.3C96.7 87 106.3 91 116 88C125.7 85 135.3 75 145 69.2C154.7 63.3 164.3 61.7 174 66.3C183.7 71 193.3 82 203 85.3C212.7 88.7 222.3 84.3 232 83.8C241.7 83.3 251.3 86.7 261 85.3C270.7 84 280.3 78 290 79C299.7 80 309.3 88 319 91.8C328.7 95.7 338.3 95.3 348 91.5C357.7 87.7 367.3 80.3 377 81C386.7 81.7 396.3 90.3 406 94.5C415.7 98.7 425.3 98.3 435.2 97.8C445 97.3 455 96.7 464.8 91.8C474.7 87 484.3 78 494 73.8C503.7 69.7 513.3 70.3 523 71.2C532.7 72 542.3 73 552 71.5C561.7 70 571.3 66 581 62.3C590.7 58.7 600.3 55.3 610 54.5C619.7 53.7 629.3 55.3 639 58.7C648.7 62 658.3 67 668 73.7C677.7 80.3 687.3 88.7 697 87.5C706.7 86.3 716.3 75.7 726 68.3C735.7 61 745.3 57 755 56.5C764.7 56 774.3 59 784 63.8C793.7 68.7 803.3 75.3 813 79.5C822.7 83.7 832.3 85.3 842 83.5C851.7 81.7 861.3 76.3 871 71.2C880.7 66 890.3 61 895.2 58.5L900 56L900 101L895.2 101C890.3 101 880.7 101 871 101C861.3 101 851.7 101 842 101C832.3 101 822.7 101 813 101C803.3 101 793.7 101 784 101C774.3 101 764.7 101 755 101C745.3 101 735.7 101 726 101C716.3 101 706.7 101 697 101C687.3 101 677.7 101 668 101C658.3 101 648.7 101 639 101C629.3 101 619.7 101 610 101C600.3 101 590.7 101 581 101C571.3 101 561.7 101 552 101C542.3 101 532.7 101 523 101C513.3 101 503.7 101 494 101C484.3 101 474.7 101 464.8 101C455 101 445 101 435.2 101C425.3 101 415.7 101 406 101C396.3 101 386.7 101 377 101C367.3 101 357.7 101 348 101C338.3 101 328.7 101 319 101C309.3 101 299.7 101 290 101C280.3 101 270.7 101 261 101C251.3 101 241.7 101 232 101C222.3 101 212.7 101 203 101C193.3 101 183.7 101 174 101C164.3 101 154.7 101 145 101C135.3 101 125.7 101 116 101C106.3 101 96.7 101 87 101C77.3 101 67.7 101 58 101C48.3 101 38.7 101 29 101C19.3 101 9.7 101 4.8 101L0 101Z" fill="#F00" stroke-linecap="round" stroke-linejoin="miter"></path></svg>