<svg id="visual" viewBox="0 0 900 100" width="900" height="100" xmlns="http://www.w3.org/2000/svg" xmlns:xlink="http://www.w3.org/1999/xlink" version="1.1"><rect x="0" y="0" width="900" height="100" fill="#222"></rect><path d="M0 83L6 84.2C12 85.3 24 87.7 36 85.7C48 83.7 60 77.3 72 78C84 78.7 96 86.3 108 89.5C120 92.7 132 91.3 144 86.7C156 82 168 74 180 69.3C192 64.7 204 63.3 216 67.7C228 72 240 82 252 83.8C264 85.7 276 79.3 288 77.7C300 76 312 79 324 82C336 85 348 88 360 84.7C372 81.3 384 71.7 396 70.5C408 69.3 420 76.7 432 77.7C444 78.7 456 73.3 468 74.2C480 75 492 82 504 81.2C516 80.3 528 71.7 540 67.8C552 64 564 65 576 65.8C588 66.7 600 67.3 612 70.2C624 73 636 78 648 80.3C660 82.7 672 82.3 684 81C696 79.7 708 77.3 720 74.7C732 72 744 69 756 68C768 67 780 68 792 70.7C804 73.3 816 77.7 828 82.2C840 86.7 852 91.3 864 93C876 94.7 888 93.3 894 92.7L900 92L900 101L894 101C888 101 876 101 864 101C852 101 840 101 828 101C816 101 804 101 792 101C780 101 768 101 756 101C744 101 732 101 720 101C708 101 696 101 684 101C672 101 660 101 648 101C636 101 624 101 612 101C600 101 588 101 576 101C564 101 552 101 540 101C528 101 516 101 504 101C492 101 480 101 468 101C456 101 444 101 432 101C420 101 408 101 396 101C384 101 372 101 360 101C348 101 336 101 324 101C312 101 300 101 288 101C276 101 264 101 252 101C240 101 228 101 216 101C204 101 192 101 180 101C168 101 156 101 144 101C132 101 120 101 108 101C96 101 84 101 72 101C60 101 48 101 36 101C24 101 12 101 6 101L0 101Z" fill="#ffff00" stroke-linecap="round" stroke-linejoin="miter"></path></svg>