<svg id="visual" viewBox="0 0 900 100" width="900" height="100" xmlns="http://www.w3.org/2000/svg" xmlns:xlink="http://www.w3.org/1999/xlink" version="1.1"><rect x="0" y="0" width="900" height="100" fill="#222"></rect><path d="M0 7L18.8 11.8C37.7 16.7 75.3 26.3 112.8 36.2C150.3 46 187.7 56 225.2 55.3C262.7 54.7 300.3 43.3 337.8 36.8C375.3 30.3 412.7 28.7 450.2 27C487.7 25.3 525.3 23.7 562.8 28.2C600.3 32.7 637.7 43.3 675.2 48.8C712.7 54.3 750.3 54.7 787.8 47.5C825.3 40.3 862.7 25.7 881.3 18.3L900 11L900 0L881.3 0C862.7 0 825.3 0 787.8 0C750.3 0 712.7 0 675.2 0C637.7 0 600.3 0 562.8 0C525.3 0 487.7 0 450.2 0C412.7 0 375.3 0 337.8 0C300.3 0 262.7 0 225.2 0C187.7 0 150.3 0 112.8 0C75.3 0 37.7 0 18.8 0L0 0Z" fill="#ffff00" stroke-linecap="round" stroke-linejoin="miter"></path></svg>