<svg id="visual" viewBox="0 0 900 100" width="900" height="100" xmlns="http://www.w3.org/2000/svg" xmlns:xlink="http://www.w3.org/1999/xlink" version="1.1"><rect x="0" y="0" width="900" height="100" fill="#222"></rect><path d="M0 56L33 54L67 42L100 58L133 54L167 71L200 61L233 70L267 35L300 60L333 43L367 46L400 41L433 42L467 37L500 33L533 49L567 32L600 28L633 60L667 66L700 32L733 28L767 26L800 50L833 33L867 54L900 63L900 0L867 0L833 0L800 0L767 0L733 0L700 0L667 0L633 0L600 0L567 0L533 0L500 0L467 0L433 0L400 0L367 0L333 0L300 0L267 0L233 0L200 0L167 0L133 0L100 0L67 0L33 0L0 0Z" fill="#00F" stroke-linecap="square" stroke-linejoin="bevel"></path></svg>