<svg id="visual" viewBox="0 0 900 100" width="900" height="100" xmlns="http://www.w3.org/2000/svg" xmlns:xlink="http://www.w3.org/1999/xlink" version="1.1"><rect x="0" y="0" width="900" height="100" fill="#222"></rect><path d="M0 66L4.8 69.7C9.7 73.3 19.3 80.7 29 78C38.7 75.3 48.3 62.7 58 62.7C67.7 62.7 77.3 75.3 87 82.7C96.7 90 106.3 92 116 89.8C125.7 87.7 135.3 81.3 145 80.7C154.7 80 164.3 85 174 81C183.7 77 193.3 64 203 62.5C212.7 61 222.3 71 232 77C241.7 83 251.3 85 261 85.8C270.7 86.7 280.3 86.3 290 86.7C299.7 87 309.3 88 319 84.8C328.7 81.7 338.3 74.3 348 75.3C357.7 76.3 367.3 85.7 377 85.5C386.7 85.3 396.3 75.7 406 70C415.7 64.3 425.3 62.7 435.2 64C445 65.3 455 69.7 464.8 74.8C474.7 80 484.3 86 494 86.2C503.7 86.3 513.3 80.7 523 75.3C532.7 70 542.3 65 552 64.5C561.7 64 571.3 68 581 70C590.7 72 600.3 72 610 69.2C619.7 66.3 629.3 60.7 639 62C648.7 63.3 658.3 71.7 668 76.3C677.7 81 687.3 82 697 79.7C706.7 77.3 716.3 71.7 726 70.8C735.7 70 745.3 74 755 79.3C764.7 84.7 774.3 91.3 784 91.7C793.7 92 803.3 86 813 81.7C822.7 77.3 832.3 74.7 842 75.8C851.7 77 861.3 82 871 85C880.7 88 890.3 89 895.2 89.5L900 90L900 101L895.2 101C890.3 101 880.7 101 871 101C861.3 101 851.7 101 842 101C832.3 101 822.7 101 813 101C803.3 101 793.7 101 784 101C774.3 101 764.7 101 755 101C745.3 101 735.7 101 726 101C716.3 101 706.7 101 697 101C687.3 101 677.7 101 668 101C658.3 101 648.7 101 639 101C629.3 101 619.7 101 610 101C600.3 101 590.7 101 581 101C571.3 101 561.7 101 552 101C542.3 101 532.7 101 523 101C513.3 101 503.7 101 494 101C484.3 101 474.7 101 464.8 101C455 101 445 101 435.2 101C425.3 101 415.7 101 406 101C396.3 101 386.7 101 377 101C367.3 101 357.7 101 348 101C338.3 101 328.7 101 319 101C309.3 101 299.7 101 290 101C280.3 101 270.7 101 261 101C251.3 101 241.7 101 232 101C222.3 101 212.7 101 203 101C193.3 101 183.7 101 174 101C164.3 101 154.7 101 145 101C135.3 101 125.7 101 116 101C106.3 101 96.7 101 87 101C77.3 101 67.7 101 58 101C48.3 101 38.7 101 29 101C19.3 101 9.7 101 4.8 101L0 101Z" fill="#FFA500" stroke-linecap="round" stroke-linejoin="miter"></path></svg>