<svg id="visual" viewBox="0 0 900 100" width="900" height="100" xmlns="http://www.w3.org/2000/svg" xmlns:xlink="http://www.w3.org/1999/xlink" version="1.1"><rect x="0" y="0" width="900" height="100" fill="#222"></rect><path d="M0 48L5.5 53.3C11 58.7 22 69.3 33.2 72.3C44.3 75.3 55.7 70.7 66.8 71.2C78 71.7 89 77.3 100 77.2C111 77 122 71 133.2 67.7C144.3 64.3 155.7 63.7 166.8 59.5C178 55.3 189 47.7 200 48.2C211 48.7 222 57.3 233.2 57.7C244.3 58 255.7 50 266.8 51.8C278 53.7 289 65.3 300 67.5C311 69.7 322 62.3 333.2 59.8C344.3 57.3 355.7 59.7 366.8 61.7C378 63.7 389 65.3 400 64.3C411 63.3 422 59.7 433.2 56.8C444.3 54 455.7 52 466.8 48.7C478 45.3 489 40.7 500 43.7C511 46.7 522 57.3 533.2 58C544.3 58.7 555.7 49.3 566.8 46C578 42.7 589 45.3 600 47.7C611 50 622 52 633.2 57.7C644.3 63.3 655.7 72.7 666.8 69.3C678 66 689 50 700 44.2C711 38.3 722 42.7 733.2 50.7C744.3 58.7 755.7 70.3 766.8 72.8C778 75.3 789 68.7 800 67.8C811 67 822 72 833.2 74C844.3 76 855.7 75 866.8 72.3C878 69.7 889 65.3 894.5 63.2L900 61L900 101L894.5 101C889 101 878 101 866.8 101C855.7 101 844.3 101 833.2 101C822 101 811 101 800 101C789 101 778 101 766.8 101C755.7 101 744.3 101 733.2 101C722 101 711 101 700 101C689 101 678 101 666.8 101C655.7 101 644.3 101 633.2 101C622 101 611 101 600 101C589 101 578 101 566.8 101C555.7 101 544.3 101 533.2 101C522 101 511 101 500 101C489 101 478 101 466.8 101C455.7 101 444.3 101 433.2 101C422 101 411 101 400 101C389 101 378 101 366.8 101C355.7 101 344.3 101 333.2 101C322 101 311 101 300 101C289 101 278 101 266.8 101C255.7 101 244.3 101 233.2 101C222 101 211 101 200 101C189 101 178 101 166.8 101C155.7 101 144.3 101 133.2 101C122 101 111 101 100 101C89 101 78 101 66.8 101C55.7 101 44.3 101 33.2 101C22 101 11 101 5.5 101L0 101Z" fill="#800080" stroke-linecap="round" stroke-linejoin="miter"></path></svg>