<svg id="visual" viewBox="0 0 900 100" width="900" height="100" xmlns="http://www.w3.org/2000/svg" xmlns:xlink="http://www.w3.org/1999/xlink" version="1.1"><rect x="0" y="0" width="900" height="100" fill="#222"></rect><path d="M0 19L18.8 19C37.7 19 75.3 19 112.8 22.7C150.3 26.3 187.7 33.7 225.2 39.7C262.7 45.7 300.3 50.3 337.8 52.7C375.3 55 412.7 55 450.2 52.8C487.7 50.7 525.3 46.3 562.8 43.5C600.3 40.7 637.7 39.3 675.2 34.7C712.7 30 750.3 22 787.8 23C825.3 24 862.7 34 881.3 39L900 44L900 0L881.3 0C862.7 0 825.3 0 787.8 0C750.3 0 712.7 0 675.2 0C637.7 0 600.3 0 562.8 0C525.3 0 487.7 0 450.2 0C412.7 0 375.3 0 337.8 0C300.3 0 262.7 0 225.2 0C187.7 0 150.3 0 112.8 0C75.3 0 37.7 0 18.8 0L0 0Z" fill="#800080" stroke-linecap="round" stroke-linejoin="miter"></path></svg>