<svg id="visual" viewBox="0 0 900 100" width="900" height="100" xmlns="http://www.w3.org/2000/svg" xmlns:xlink="http://www.w3.org/1999/xlink" version="1.1"><rect x="0" y="0" width="900" height="100" fill="#222"></rect><path d="M0 43L4.8 43.2C9.7 43.3 19.3 43.7 29 43.2C38.7 42.7 48.3 41.3 58 39.3C67.7 37.3 77.3 34.7 87 31C96.7 27.3 106.3 22.7 116 17.3C125.7 12 135.3 6 145 6.8C154.7 7.7 164.3 15.3 174 22C183.7 28.7 193.3 34.3 203 38.3C212.7 42.3 222.3 44.7 232 38C241.7 31.3 251.3 15.7 261 13.7C270.7 11.7 280.3 23.3 290 25.3C299.7 27.3 309.3 19.7 319 16.5C328.7 13.3 338.3 14.7 348 19.5C357.7 24.3 367.3 32.7 377 34.8C386.7 37 396.3 33 406 28.7C415.7 24.3 425.3 19.7 435.2 17C445 14.3 455 13.7 464.8 17C474.7 20.3 484.3 27.7 494 27.8C503.7 28 513.3 21 523 16.2C532.7 11.3 542.3 8.7 552 7C561.7 5.3 571.3 4.7 581 4C590.7 3.3 600.3 2.7 610 9.2C619.7 15.7 629.3 29.3 639 33.3C648.7 37.3 658.3 31.7 668 32C677.7 32.3 687.3 38.7 697 41.7C706.7 44.7 716.3 44.3 726 42.2C735.7 40 745.3 36 755 30.7C764.7 25.3 774.3 18.7 784 17.5C793.7 16.3 803.3 20.7 813 18.7C822.7 16.7 832.3 8.3 842 9.2C851.7 10 861.3 20 871 26.7C880.7 33.3 890.3 36.7 895.2 38.3L900 40L900 0L895.2 0C890.3 0 880.7 0 871 0C861.3 0 851.7 0 842 0C832.3 0 822.7 0 813 0C803.3 0 793.7 0 784 0C774.3 0 764.7 0 755 0C745.3 0 735.7 0 726 0C716.3 0 706.7 0 697 0C687.3 0 677.7 0 668 0C658.3 0 648.7 0 639 0C629.3 0 619.7 0 610 0C600.3 0 590.7 0 581 0C571.3 0 561.7 0 552 0C542.3 0 532.7 0 523 0C513.3 0 503.7 0 494 0C484.3 0 474.7 0 464.8 0C455 0 445 0 435.2 0C425.3 0 415.7 0 406 0C396.3 0 386.7 0 377 0C367.3 0 357.7 0 348 0C338.3 0 328.7 0 319 0C309.3 0 299.7 0 290 0C280.3 0 270.7 0 261 0C251.3 0 241.7 0 232 0C222.3 0 212.7 0 203 0C193.3 0 183.7 0 174 0C164.3 0 154.7 0 145 0C135.3 0 125.7 0 116 0C106.3 0 96.7 0 87 0C77.3 0 67.7 0 58 0C48.3 0 38.7 0 29 0C19.3 0 9.7 0 4.8 0L0 0Z" fill="#F00" stroke-linecap="round" stroke-linejoin="miter"></path></svg>