<svg id="visual" viewBox="0 0 900 100" width="900" height="100" xmlns="http://www.w3.org/2000/svg" xmlns:xlink="http://www.w3.org/1999/xlink" version="1.1"><rect x="0" y="0" width="900" height="100" fill="#222"></rect><path d="M0 81L6.3 78.7C12.7 76.3 25.3 71.7 37.8 70.2C50.3 68.7 62.7 70.3 75.2 71.2C87.7 72 100.3 72 112.8 75.2C125.3 78.3 137.7 84.7 150.2 85.2C162.7 85.7 175.3 80.3 187.8 78.5C200.3 76.7 212.7 78.3 225.2 78.3C237.7 78.3 250.3 76.7 262.8 76C275.3 75.3 287.7 75.7 300.2 74.8C312.7 74 325.3 72 337.8 72.2C350.3 72.3 362.7 74.7 375.2 77.3C387.7 80 400.3 83 412.8 86C425.3 89 437.7 92 450 88.2C462.3 84.3 474.7 73.7 487.2 68.8C499.7 64 512.3 65 525 66.7C537.7 68.3 550.3 70.7 562.8 70.5C575.3 70.3 587.7 67.7 600.2 69C612.7 70.3 625.3 75.7 637.8 77.3C650.3 79 662.7 77 675.2 77.5C687.7 78 700.3 81 712.8 81.2C725.3 81.3 737.7 78.7 750.2 80.3C762.7 82 775.3 88 787.8 88.2C800.3 88.3 812.7 82.7 825.2 78.3C837.7 74 850.3 71 862.8 69C875.3 67 887.7 66 893.8 65.5L900 65L900 101L893.8 101C887.7 101 875.3 101 862.8 101C850.3 101 837.7 101 825.2 101C812.7 101 800.3 101 787.8 101C775.3 101 762.7 101 750.2 101C737.7 101 725.3 101 712.8 101C700.3 101 687.7 101 675.2 101C662.7 101 650.3 101 637.8 101C625.3 101 612.7 101 600.2 101C587.7 101 575.3 101 562.8 101C550.3 101 537.7 101 525 101C512.3 101 499.7 101 487.2 101C474.7 101 462.3 101 450 101C437.7 101 425.3 101 412.8 101C400.3 101 387.7 101 375.2 101C362.7 101 350.3 101 337.8 101C325.3 101 312.7 101 300.2 101C287.7 101 275.3 101 262.8 101C250.3 101 237.7 101 225.2 101C212.7 101 200.3 101 187.8 101C175.3 101 162.7 101 150.2 101C137.7 101 125.3 101 112.8 101C100.3 101 87.7 101 75.2 101C62.7 101 50.3 101 37.8 101C25.3 101 12.7 101 6.3 101L0 101Z" fill="#40e0d0" stroke-linecap="round" stroke-linejoin="miter"></path></svg>